<?xml version="1.0" encoding="utf-8"?>
<!-- Generator: Adobe Illustrator 22.1.0, SVG Export Plug-In . SVG Version: 6.00 Build 0)  -->
<svg version="1.1"
	 id="svg2" inkscape:version="0.48.2 r9819" sodipodi:docname="flame-animation-02.svg" xmlns:cc="http://creativecommons.org/ns#" xmlns:dc="http://purl.org/dc/elements/1.1/" xmlns:html="http://www.w3.org/1999/xhtml" xmlns:inkscape="http://www.inkscape.org/namespaces/inkscape" xmlns:rdf="http://www.w3.org/1999/02/22-rdf-syntax-ns#" xmlns:sodipodi="http://sodipodi.sourceforge.net/DTD/sodipodi-0.dtd" xmlns:svg="http://www.w3.org/2000/svg"
	 xmlns="http://www.w3.org/2000/svg" xmlns:xlink="http://www.w3.org/1999/xlink" x="0px" y="0px" viewBox="0 0 128 128"
	 style="enable-background:new 0 0 128 128;" xml:space="preserve">
<style type="text/css">
	.st0{fill:#94D8F7;}
	.st1{fill:#FF0000;}
	.st2{fill:url(#path3014_1_);}
	.st3{clip-path:url(#SVGID_3_);}
</style>
<sodipodi:namedview  bordercolor="#666666" borderopacity="1" gridtolerance="10" guidetolerance="10" id="namedview6" inkscape:current-layer="svg2" inkscape:cx="300" inkscape:cy="300" inkscape:pageopacity="0" inkscape:pageshadow="2" inkscape:window-height="480" inkscape:window-maximized="0" inkscape:window-width="640" inkscape:window-x="910" inkscape:window-y="227" inkscape:zoom="0.39333333" objecttolerance="10" pagecolor="#ffffff" showgrid="false">
	</sodipodi:namedview>
<g id="_x34_" transform="matrix(4.4597458,0,0,4.1355932,-1033.8984,-3921.6334)">
	<rect id="rect3800" x="233.6" y="949.1" class="st0" width="17.1" height="21.3"/>
	<g id="g3860" transform="translate(-2,-2.9900174)">
		<path id="path3828" inkscape:connector-curvature="0" class="st1" d="M241.9,956c-0.5,0-0.9,0.4-0.8,0.9c0,0.1,0,0.3,0.1,0.4
			c0.7,1.2,1,1.9,1,2.5c0,0.3-0.1,0.6-0.2,1c-0.2-0.4-0.7-0.7-1.1-0.5c-0.1,0-0.1,0.1-0.2,0.1c-0.9,0.7-1.8,2.2-2,4.1
			c-0.2,1.9,0.2,4.3,2.2,6.5c0.5,0.6,1.3,1.2,2.4,1.4s2.3-0.2,3.7-1.2c0,0,0.1-0.1,0.1-0.1c0.7-0.8,1.3-1.5,1.6-2.3s0.3-1.8,0.2-2.9
			c0-0.5-0.5-0.8-0.9-0.8c0,0,0,0,0,0c0-1.5-0.4-2.7-1.1-3.8c-1-1.5-2.5-2.8-4.2-4.9C242.5,956.1,242.2,956,241.9,956z"/>
		
			<radialGradient id="path3014_1_" cx="261.6333" cy="735.0994" r="21.189" gradientTransform="matrix(0.7633 0 0 -0.7911 44.0489 1548.7257)" gradientUnits="userSpaceOnUse">
			<stop  offset="0" style="stop-color:#FFFFFF"/>
			<stop  offset="1" style="stop-color:#FFBC00"/>
		</radialGradient>
		<path id="path3014" inkscape:connector-curvature="0" class="st2" d="M241.2,961.1l0.7,1.9c1.6-2.9,1.5-3.7,0.1-6.1
			c3.4,4.1,6,5.3,4.8,10l1.2-1c0.2,2.2-0.2,3.1-1.6,4.6c-2.7,1.9-4,1.1-5,0C237.9,966.5,239.9,962.1,241.2,961.1L241.2,961.1z"/>
	</g>
</g>
<g id="foreignObject01">
	<g>
		<g>
			<defs>
				<polygon id="SVGID_1_" points="0.2,0.2 0.4,0.2 0.2,0.4 				"/>
			</defs>
			<defs>
				<polygon id="SVGID_2_" points="-0.2,-0.2 -0.4,-0.2 -0.2,-0.4 				"/>
			</defs>
			<clipPath id="SVGID_3_">
				<use xlink:href="#SVGID_1_"  style="overflow:visible;"/>
			</clipPath>
			<clipPath id="SVGID_4_" class="st3">
				<use xlink:href="#SVGID_2_"  style="overflow:visible;"/>
			</clipPath>
		</g>
	</g>
</g>
</svg>
