<?xml version="1.0" encoding="utf-8"?>
<!-- Generator: Adobe Illustrator 22.1.0, SVG Export Plug-In . SVG Version: 6.00 Build 0)  -->
<svg version="1.1" id="Layer_1" xmlns="http://www.w3.org/2000/svg" xmlns:xlink="http://www.w3.org/1999/xlink" x="0px" y="0px"
	 viewBox="0 0 128 128" style="enable-background:new 0 0 128 128;" xml:space="preserve">
<style type="text/css">
	.st0{fill:#8B7000;}
	.st1{fill:#A0A6AF;}
</style>
<g>
	<path class="st0" d="M63,94L63,94c6.9,0,12,1.4,12-5.5v-57C75,24.6,69.4,19,62.5,19h0C55.6,19,50,24.6,50,31.5v57
		C50,95.4,56.1,94,63,94z"/>
</g>
<g>
	<g>
		<path class="st1" d="M81.5,9.5H53.1h-0.1C52.7,11.5,51,13,49,13s-3.7-1.5-3.9-3.5h-6.6c-2.2,0-4,1.8-4,4v7c0,2.2,1.8,4,4,4h6.6
			c0.2-2,1.9-3.5,3.9-3.5s3.7,1.5,3.9,3.5h19.6c0-5,1.8-9,4-9s4,4,4,9h1c2.2,0,4-1.8,4-4v-7C85.5,11.3,83.7,9.5,81.5,9.5z"/>
	</g>
</g>
</svg>
