<?xml version="1.0" encoding="utf-8"?>
<!-- Generator: Adobe Illustrator 22.1.0, SVG Export Plug-In . SVG Version: 6.00 Build 0)  -->
<svg version="1.1" id="Layer_1" xmlns="http://www.w3.org/2000/svg" xmlns:xlink="http://www.w3.org/1999/xlink" x="0px" y="0px"
	 viewBox="0 0 69 38" style="enable-background:new 0 0 69 38;" xml:space="preserve">
<style type="text/css">
	.st0{fill:#000A17;}
	.st1{fill:#FBFF73;stroke:#000000;stroke-width:0.5;stroke-miterlimit:10;}
</style>
<g>
	<g>
		
			<rect x="32.2" y="14" transform="matrix(1 -9.197988e-03 9.197988e-03 1 -0.1578 0.4251)" class="st0" width="27.9" height="6.8"/>
		<path d="M59.8,14.1l0.1,6.3l-27.4,0.3l-0.1-6.3L59.8,14.1 M60.3,13.6l-28.4,0.3l0.1,7.3l28.4-0.3L60.3,13.6L60.3,13.6z"/>
	</g>
	<g>
		<path d="M31.4,14.4l0.1,6.3l-8.7,0.1l-0.1-6.3L31.4,14.4 M31.9,13.8l-9.7,0.1l0.1,7.3l9.7-0.1L31.9,13.8L31.9,13.8z"/>
	</g>
	<g>
		<path class="st0" d="M60.4,20.6c-1.4,0-2.6-1.5-2.6-3.4c0-1.9,1.1-3.4,2.6-3.4c1.4,0,2.6,1.5,2.6,3.4C63,19.1,61.8,20.6,60.4,20.6
			L60.4,20.6z"/>
		<path d="M60.3,13.6v0.5c1.3,0,2.3,1.4,2.4,3.1c0,1.7-1,3.2-2.3,3.2c-1.3,0-2.3-1.4-2.4-3.1c0-0.9,0.2-1.7,0.7-2.3
			c0.4-0.6,1-0.9,1.6-0.9L60.3,13.6 M60.3,13.6C60.3,13.6,60.3,13.6,60.3,13.6c-1.6,0-2.8,1.7-2.8,3.7c0,2,1.3,3.6,2.9,3.6
			c0,0,0,0,0,0c1.6,0,2.8-1.7,2.8-3.7C63.2,15.2,61.9,13.6,60.3,13.6L60.3,13.6z"/>
	</g>
</g>
<polygon class="st1" points="10.6,24 15.1,24.8 18.2,21.5 18.9,26 22.9,28 18.9,30 18.2,34.5 15.1,31.2 10.6,32 12.7,28 "/>
<polygon class="st1" points="16.1,2.5 19.2,5.1 23,4.1 21.5,7.8 23.6,11.2 19.6,10.8 17.1,13.9 16.2,10 12.5,8.6 15.9,6.5 "/>
<polygon class="st1" points="7.3,11.3 10.5,14 14.5,13 12.9,16.9 15.1,20.4 10.9,20 8.3,23.2 7.3,19.2 3.5,17.6 7,15.5 "/>
</svg>
