<?xml version="1.0" encoding="utf-8"?>
<!-- Generator: Adobe Illustrator 22.1.0, SVG Export Plug-In . SVG Version: 6.00 Build 0)  -->
<svg version="1.1" id="Layer_1" xmlns="http://www.w3.org/2000/svg" xmlns:xlink="http://www.w3.org/1999/xlink" x="0px" y="0px"
	 viewBox="0 0 46.1 45.4" style="enable-background:new 0 0 46.1 45.4;" xml:space="preserve">
<style type="text/css">
	.st0{fill:#000A17;}
</style>
<g>
	<g>
		
			<rect x="20.3" y="10.8" transform="matrix(0.7721 -0.6355 0.6355 0.7721 -10.3574 20.6953)" class="st0" width="6.8" height="27.9"/>
		<path d="M17.4,12.2l17.4,21.2l-4.9,4L12.5,16.2L17.4,12.2 M17.5,11.5l-5.6,4.6l18.1,21.9l5.6-4.6L17.5,11.5L17.5,11.5z"/>
	</g>
	<g>
		<path d="M11.3,4.7l5.5,6.7l-4.9,4L6.4,8.7L11.3,4.7 M11.3,4L5.7,8.7l6.1,7.5l5.6-4.6L11.3,4L11.3,4z"/>
	</g>
	<g>
		<path class="st0" d="M31.9,38.7c-0.8,0-1.4-0.3-1.8-0.8c-0.4-0.5-0.6-1.2-0.4-2c0.2-0.8,0.7-1.6,1.4-2.1c0.7-0.6,1.6-0.9,2.5-0.9
			c0.8,0,1.4,0.3,1.8,0.8c0.9,1.1,0.5,3-1,4.2C33.6,38.4,32.7,38.7,31.9,38.7z"/>
		<path d="M33.5,33.1L33.5,33.1c0.7,0,1.3,0.2,1.6,0.7c0.4,0.5,0.5,1.1,0.3,1.8c-0.2,0.7-0.6,1.5-1.3,2c-0.7,0.6-1.5,0.9-2.3,0.9
			c-0.7,0-1.3-0.2-1.6-0.7c-0.4-0.5-0.5-1.1-0.3-1.8c0.2-0.7,0.6-1.5,1.3-2C31.9,33.4,32.7,33.1,33.5,33.1 M33.5,32.6
			c-0.9,0-1.8,0.3-2.6,1c-1.6,1.3-2,3.3-1,4.5c0.5,0.6,1.2,0.9,2,0.9c0.9,0,1.8-0.3,2.6-1c1.6-1.3,2-3.3,1-4.5
			C35,32.9,34.3,32.6,33.5,32.6L33.5,32.6z"/>
	</g>
</g>
</svg>
